<svg width="230" height="32" viewBox="0 0 230 32" fill="none" xmlns="http://www.w3.org/2000/svg">
<path d="M15.9516 17.856L16.5276 17.44C17.253 17.0133 17.765 16.8 18.0636 16.8C18.725 16.8 19.4396 17.3973 20.2076 18.592C20.677 19.3387 20.9116 19.936 20.9116 20.384C20.9116 20.832 20.7623 21.2053 20.4636 21.504C20.1863 21.8027 19.8556 22.0693 19.4716 22.304C19.0876 22.5387 18.7143 22.7627 18.3516 22.976C18.0103 23.1893 17.2956 23.4667 16.2076 23.808C15.1196 24.1493 14.0636 24.32 13.0396 24.32C12.037 24.32 11.013 24.192 9.96763 23.936C8.94363 23.6587 7.87696 23.2107 6.76763 22.592C5.67963 21.952 4.69829 21.184 3.82363 20.288C2.94896 19.3707 2.22363 18.208 1.64763 16.8C1.09296 15.3707 0.815625 13.824 0.815625 12.16C0.815625 10.496 1.09296 8.992 1.64763 7.648C2.20229 6.28267 2.90629 5.16267 3.75963 4.288C4.63429 3.392 5.62629 2.64533 6.73563 2.048C8.82629 0.895999 10.9276 0.32 13.0396 0.32C14.0423 0.32 15.0556 0.48 16.0796 0.799999C17.125 1.09867 17.9143 1.408 18.4476 1.728L19.2156 2.176C19.5996 2.41067 19.8983 2.60267 20.1116 2.752C20.6663 3.2 20.9436 3.712 20.9436 4.288C20.9436 4.84267 20.7196 5.42933 20.2716 6.048C19.4396 7.2 18.693 7.776 18.0316 7.776C17.6476 7.776 17.1036 7.54133 16.3996 7.072C15.5036 6.34667 14.309 5.984 12.8156 5.984C11.429 5.984 10.0636 6.464 8.71963 7.424C8.07963 7.89333 7.54629 8.55467 7.11963 9.408C6.69296 10.2613 6.47963 11.232 6.47963 12.32C6.47963 13.3867 6.69296 14.3467 7.11963 15.2C7.54629 16.0533 8.09029 16.7253 8.75163 17.216C10.053 18.1547 11.4076 18.624 12.8156 18.624C13.477 18.624 14.0956 18.5387 14.6716 18.368C15.269 18.1973 15.6956 18.0267 15.9516 17.856ZM34.4704 7.328C34.8757 7.456 35.2064 7.68 35.4624 8C35.7397 8.29867 35.8784 8.78933 35.8784 9.472C35.8784 10.1547 35.6757 10.9013 35.2704 11.712C34.865 12.5227 34.2784 12.928 33.5104 12.928C33.1264 12.928 32.753 12.8427 32.3904 12.672C32.049 12.5013 31.5904 12.416 31.0144 12.416C30.4384 12.416 29.8944 12.6187 29.3824 13.024C28.8917 13.4293 28.6464 13.92 28.6464 14.496V21.216C28.6464 21.7067 28.625 22.08 28.5824 22.336C28.561 22.5707 28.465 22.848 28.2944 23.168C27.9744 23.7227 27.1424 24 25.7984 24C24.7744 24 24.0384 23.8187 23.5904 23.456C23.249 23.1573 23.057 22.6987 23.0144 22.08C23.0144 21.8667 23.0144 21.5573 23.0144 21.152V9.92C23.0144 9.42933 23.025 9.06667 23.0464 8.832C23.089 8.576 23.185 8.29867 23.3344 8C23.633 7.424 24.465 7.136 25.8304 7.136C27.1104 7.136 27.9104 7.38133 28.2304 7.872C28.465 8.21333 28.5824 8.56533 28.5824 8.928C28.689 8.77867 28.8384 8.59733 29.0304 8.384C29.2437 8.17067 29.681 7.88267 30.3424 7.52C31.0037 7.15733 31.5797 6.976 32.0704 6.976C32.5824 6.976 33.009 7.008 33.3504 7.072C33.6917 7.11467 34.065 7.2 34.4704 7.328ZM53.3194 7.328C54.578 7.88267 55.2074 8.55467 55.2074 9.344C55.2074 9.728 55.122 10.0907 54.9514 10.432C54.7807 10.7733 54.6954 10.9547 54.6954 10.976L46.3114 29.728C46.1407 30.1333 45.9914 30.4427 45.8634 30.656C45.7567 30.8693 45.5754 31.072 45.3194 31.264C45.0634 31.456 44.7434 31.552 44.3594 31.552C43.9754 31.552 43.41 31.392 42.6634 31.072C41.4047 30.5173 40.7754 29.856 40.7754 29.088C40.7754 28.576 41.7994 26.1333 43.8474 21.76L37.4794 11.04C37.0527 10.336 36.8394 9.81333 36.8394 9.472C36.8394 8.78933 37.4154 8.10667 38.5674 7.424C39.2927 6.99733 39.858 6.784 40.2634 6.784C40.6687 6.784 40.9994 6.86933 41.2554 7.04C41.5114 7.21067 41.6927 7.392 41.7994 7.584C41.9274 7.75467 42.514 8.74667 43.5594 10.56C44.626 12.352 45.6394 14.0267 46.5994 15.584C46.706 15.2427 47.282 13.9307 48.3274 11.648C49.3727 9.344 49.9274 8.11733 49.9914 7.968C50.0767 7.81867 50.2047 7.63733 50.3754 7.424C50.6527 7.06133 51.0367 6.88 51.5274 6.88C52.0394 6.88 52.6367 7.02933 53.3194 7.328ZM56.9519 28.576V9.888C56.9519 9.39733 56.9625 9.03467 56.9839 8.8C57.0265 8.56533 57.1225 8.29867 57.2719 8C57.5705 7.424 58.2852 7.136 59.4159 7.136C60.5465 7.136 61.3039 7.28533 61.6879 7.584C62.0932 7.86133 62.3279 8.27733 62.3919 8.832C63.2025 7.72267 64.4719 7.168 66.1999 7.168C67.9492 7.168 69.6025 7.98933 71.1599 9.632C72.7172 11.2747 73.4959 13.184 73.4959 15.36C73.4959 17.536 72.7172 19.4453 71.1599 21.088C69.6239 22.7307 67.9812 23.552 66.2319 23.552C64.4825 23.552 63.2132 23.0613 62.4239 22.08V28.544C62.4239 29.0347 62.4025 29.3973 62.3599 29.632C62.3385 29.8667 62.2425 30.1333 62.0719 30.432C61.9225 30.752 61.6559 30.976 61.2719 31.104C60.8879 31.232 60.3652 31.296 59.7039 31.296C59.0425 31.296 58.5092 31.232 58.1039 31.104C57.7199 30.976 57.4425 30.7627 57.2719 30.464C57.1225 30.1653 57.0265 29.8987 56.9839 29.664C56.9625 29.4293 56.9519 29.0667 56.9519 28.576ZM63.2879 13.504C62.7972 14.08 62.5519 14.7093 62.5519 15.392C62.5519 16.0747 62.7972 16.704 63.2879 17.28C63.7999 17.8347 64.4399 18.112 65.2079 18.112C65.9972 18.112 66.6585 17.8347 67.1919 17.28C67.7465 16.7253 68.0239 16.096 68.0239 15.392C68.0239 14.688 67.7679 14.0587 67.2559 13.504C66.7439 12.928 66.0719 12.64 65.2399 12.64C64.4292 12.64 63.7785 12.928 63.2879 13.504ZM85.0564 12.8L82.9764 12.672V17.088C82.9764 17.664 83.0617 18.08 83.2324 18.336C83.4244 18.592 83.7657 18.72 84.2564 18.72C84.7684 18.72 85.1524 18.7413 85.4084 18.784C85.6857 18.8053 85.9737 18.9013 86.2724 19.072C86.763 19.3493 87.0084 20.064 87.0084 21.216C87.0084 22.56 86.7097 23.3813 86.1124 23.68C85.7924 23.8293 85.5044 23.9253 85.2484 23.968C85.0137 23.9893 84.6617 24 84.1924 24C81.9737 24 80.2884 23.4987 79.1364 22.496C77.9844 21.4933 77.4084 19.7973 77.4084 17.408V12.672C77.003 12.736 76.5657 12.768 76.0964 12.768C75.627 12.768 75.2324 12.5867 74.9124 12.224C74.6137 11.8613 74.4644 11.2427 74.4644 10.368C74.4644 9.49333 74.5177 8.864 74.6244 8.48C74.731 8.07467 74.8804 7.78667 75.0724 7.616C75.4137 7.33867 75.8404 7.2 76.3524 7.2L77.4084 7.328V4.032C77.4084 3.54133 77.419 3.17867 77.4404 2.944C77.483 2.70933 77.5897 2.45333 77.7604 2.176C78.0377 1.64267 78.859 1.376 80.2244 1.376C81.675 1.376 82.539 1.77067 82.8164 2.56C82.923 2.90133 82.9764 3.44533 82.9764 4.192V7.328C83.915 7.24267 84.619 7.2 85.0884 7.2C85.579 7.2 85.9417 7.22133 86.1764 7.264C86.4324 7.28533 86.7204 7.38133 87.0404 7.552C87.595 7.82933 87.8724 8.65067 87.8724 10.016C87.8724 11.36 87.5844 12.1813 87.0084 12.48C86.6884 12.6293 86.4004 12.7253 86.1444 12.768C85.9097 12.7893 85.547 12.8 85.0564 12.8ZM89.1594 15.584C89.1594 13.024 90.0554 10.912 91.8474 9.248C93.6394 7.584 95.6874 6.752 97.9914 6.752C100.295 6.752 102.333 7.584 104.103 9.248C105.874 10.8907 106.759 12.992 106.759 15.552C106.759 17.3227 106.301 18.9013 105.383 20.288C104.466 21.6533 103.346 22.6667 102.023 23.328C100.722 23.968 99.3674 24.288 97.9594 24.288C96.5514 24.288 95.186 23.9467 93.8634 23.264C92.5407 22.56 91.4207 21.536 90.5034 20.192C89.6074 18.8267 89.1594 17.2907 89.1594 15.584ZM95.8474 17.888C96.53 18.4 97.2234 18.656 97.9274 18.656C98.6314 18.656 99.3354 18.3893 100.039 17.856C100.743 17.3227 101.095 16.5333 101.095 15.488C101.095 14.4427 100.765 13.664 100.103 13.152C99.442 12.64 98.7274 12.384 97.9594 12.384C97.1914 12.384 96.4767 12.6507 95.8154 13.184C95.154 13.7173 94.8234 14.5067 94.8234 15.552C94.8234 16.576 95.1647 17.3547 95.8474 17.888ZM133.755 1.44C133.926 1.76 134.022 2.048 134.043 2.304C134.086 2.56 134.107 2.93333 134.107 3.424V21.184C134.107 22.656 133.702 23.52 132.891 23.776C132.486 23.904 131.974 23.968 131.355 23.968C130.736 23.968 130.246 23.9147 129.883 23.808C129.52 23.7013 129.243 23.5733 129.051 23.424C128.859 23.2747 128.71 23.0613 128.603 22.784C128.496 22.4213 128.443 21.8667 128.443 21.12V10.4C127.91 11.0613 127.131 12.1173 126.107 13.568C125.083 14.9973 124.432 15.8933 124.155 16.256C123.878 16.6187 123.686 16.8747 123.579 17.024C123.472 17.152 123.206 17.344 122.779 17.6C122.374 17.8347 121.926 17.952 121.435 17.952C120.966 17.952 120.528 17.8453 120.123 17.632C119.739 17.3973 119.462 17.1733 119.291 16.96L119.035 16.608C118.608 16.0747 117.766 14.944 116.507 13.216C115.248 11.4667 114.566 10.528 114.459 10.4V21.184C114.459 21.6747 114.438 22.048 114.395 22.304C114.374 22.5387 114.278 22.8053 114.107 23.104C113.787 23.68 112.955 23.968 111.611 23.968C110.31 23.968 109.499 23.68 109.179 23.104C109.008 22.8053 108.902 22.528 108.859 22.272C108.838 22.016 108.827 21.632 108.827 21.12V3.36C108.827 2.86933 108.838 2.50667 108.859 2.272C108.902 2.016 109.008 1.728 109.179 1.408C109.499 0.853332 110.331 0.575998 111.675 0.575998C112.251 0.575998 112.742 0.650665 113.147 0.799999C113.574 0.927999 113.851 1.06667 113.979 1.216L114.171 1.408L121.435 10.944C125.062 6.144 127.483 2.976 128.699 1.44C129.062 0.863998 129.915 0.575998 131.259 0.575998C132.624 0.575998 133.456 0.863998 133.755 1.44ZM147.615 8.928C147.743 7.73333 148.585 7.136 150.143 7.136C150.975 7.136 151.593 7.2 151.999 7.328C152.404 7.456 152.681 7.68 152.831 8C153.001 8.32 153.097 8.608 153.119 8.864C153.161 9.09867 153.183 9.46133 153.183 9.952V21.152C153.183 21.6427 153.161 22.016 153.119 22.272C153.097 22.5067 153.012 22.784 152.863 23.104C152.564 23.6587 151.828 23.936 150.655 23.936C149.503 23.936 148.724 23.7973 148.319 23.52C147.935 23.2213 147.711 22.7947 147.647 22.24C146.857 23.3707 145.535 23.936 143.679 23.936C141.844 23.936 140.137 23.0933 138.559 21.408C136.98 19.7227 136.191 17.7707 136.191 15.552C136.191 13.312 136.98 11.36 138.559 9.696C140.159 8.01067 141.908 7.168 143.807 7.168C144.532 7.168 145.193 7.296 145.791 7.552C146.388 7.808 146.804 8.05333 147.039 8.288C147.273 8.50133 147.465 8.71467 147.615 8.928ZM141.791 15.584C141.791 16.288 142.068 16.928 142.623 17.504C143.177 18.0587 143.849 18.336 144.639 18.336C145.428 18.336 146.079 18.048 146.591 17.472C147.124 16.896 147.391 16.2667 147.391 15.584C147.391 14.88 147.135 14.2293 146.623 13.632C146.132 13.0347 145.46 12.736 144.607 12.736C143.775 12.736 143.092 13.0347 142.559 13.632C142.047 14.2293 141.791 14.88 141.791 15.584ZM165.109 7.136C167.242 7.136 169.013 7.95733 170.421 9.6C171.85 11.2213 172.565 13.2053 172.565 15.552V21.184C172.565 21.6747 172.544 22.048 172.501 22.304C172.48 22.5387 172.394 22.8053 172.245 23.104C171.946 23.68 171.114 23.968 169.749 23.968C168.234 23.968 167.36 23.5733 167.125 22.784C166.997 22.4213 166.933 21.8773 166.933 21.152V15.52C166.933 14.6453 166.677 13.9627 166.165 13.472C165.674 12.9813 165.002 12.736 164.149 12.736C163.317 12.736 162.634 12.992 162.101 13.504C161.589 14.016 161.333 14.688 161.333 15.52V21.184C161.333 21.6747 161.312 22.048 161.269 22.304C161.248 22.5387 161.152 22.8053 160.981 23.104C160.704 23.68 159.882 23.968 158.517 23.968C157.173 23.968 156.352 23.68 156.053 23.104C155.904 22.784 155.808 22.5067 155.765 22.272C155.744 22.016 155.733 21.6427 155.733 21.152V9.824C155.733 9.35467 155.744 9.00267 155.765 8.768C155.808 8.512 155.914 8.23467 156.085 7.936C156.384 7.40267 157.205 7.136 158.549 7.136C159.85 7.136 160.65 7.38133 160.949 7.872C161.162 8.23467 161.269 8.672 161.269 9.184C161.354 9.03467 161.546 8.82133 161.845 8.544C162.144 8.26667 162.432 8.04267 162.709 7.872C163.434 7.38133 164.234 7.136 165.109 7.136ZM186.083 8.928C186.211 7.73333 187.054 7.136 188.611 7.136C189.443 7.136 190.062 7.2 190.467 7.328C190.873 7.456 191.15 7.68 191.299 8C191.47 8.32 191.566 8.608 191.587 8.864C191.63 9.09867 191.651 9.46133 191.651 9.952V21.152C191.651 21.6427 191.63 22.016 191.587 22.272C191.566 22.5067 191.481 22.784 191.331 23.104C191.033 23.6587 190.297 23.936 189.123 23.936C187.971 23.936 187.193 23.7973 186.787 23.52C186.403 23.2213 186.179 22.7947 186.115 22.24C185.326 23.3707 184.003 23.936 182.147 23.936C180.313 23.936 178.606 23.0933 177.027 21.408C175.449 19.7227 174.659 17.7707 174.659 15.552C174.659 13.312 175.449 11.36 177.027 9.696C178.627 8.01067 180.377 7.168 182.275 7.168C183.001 7.168 183.662 7.296 184.259 7.552C184.857 7.808 185.273 8.05333 185.507 8.288C185.742 8.50133 185.934 8.71467 186.083 8.928ZM180.259 15.584C180.259 16.288 180.537 16.928 181.091 17.504C181.646 18.0587 182.318 18.336 183.107 18.336C183.897 18.336 184.547 18.048 185.059 17.472C185.593 16.896 185.859 16.2667 185.859 15.584C185.859 14.88 185.603 14.2293 185.091 13.632C184.601 13.0347 183.929 12.736 183.075 12.736C182.243 12.736 181.561 13.0347 181.027 13.632C180.515 14.2293 180.259 14.88 180.259 15.584ZM204.89 21.888C204.079 22.9547 202.789 23.488 201.018 23.488C199.247 23.488 197.583 22.6773 196.026 21.056C194.49 19.4133 193.722 17.504 193.722 15.328C193.722 13.152 194.501 11.2427 196.058 9.6C197.615 7.95733 199.322 7.136 201.178 7.136C201.903 7.136 202.565 7.27467 203.162 7.552C203.759 7.808 204.165 8.05333 204.378 8.288C204.613 8.50133 204.794 8.704 204.922 8.896C204.986 8.29867 205.199 7.85067 205.562 7.552C205.946 7.232 206.554 7.072 207.386 7.072C208.218 7.072 208.826 7.136 209.21 7.264C209.594 7.392 209.861 7.616 210.01 7.936C210.181 8.23467 210.277 8.50133 210.298 8.736C210.341 8.97067 210.362 9.33333 210.362 9.824V23.072C210.362 25.5253 209.509 27.4987 207.802 28.992C206.095 30.5067 204.175 31.264 202.042 31.264C200.421 31.264 198.874 30.8693 197.402 30.08C195.93 29.2907 195.194 28.576 195.194 27.936C195.194 27.104 195.514 26.368 196.154 25.728C196.559 25.28 196.869 24.9707 197.082 24.8C197.317 24.6293 197.583 24.544 197.882 24.544C198.181 24.544 198.49 24.672 198.81 24.928C199.834 25.7173 200.943 26.112 202.138 26.112C202.949 26.112 203.61 25.792 204.122 25.152C204.634 24.512 204.89 23.744 204.89 22.848V21.888ZM199.194 15.36C199.194 16.0427 199.461 16.6613 199.994 17.216C200.549 17.7707 201.21 18.048 201.978 18.048C202.767 18.048 203.418 17.7707 203.93 17.216C204.442 16.64 204.698 16.0213 204.698 15.36C204.698 14.6773 204.453 14.048 203.962 13.472C203.471 12.8747 202.81 12.576 201.978 12.576C201.146 12.576 200.474 12.864 199.962 13.44C199.45 14.016 199.194 14.656 199.194 15.36ZM229.177 13.568C229.177 14.8693 228.846 15.84 228.185 16.48C227.545 17.0987 226.83 17.408 226.041 17.408H218.457C218.457 18.0053 218.809 18.5067 219.513 18.912C220.217 19.3173 220.921 19.52 221.625 19.52C222.862 19.52 223.833 19.392 224.537 19.136L224.889 19.008C225.401 18.7733 225.827 18.656 226.169 18.656C226.851 18.656 227.438 19.136 227.929 20.096C228.206 20.672 228.345 21.1627 228.345 21.568C228.345 23.4667 226.073 24.416 221.529 24.416C219.95 24.416 218.542 24.1493 217.305 23.616C216.089 23.0613 215.139 22.336 214.457 21.44C213.113 19.712 212.441 17.7813 212.441 15.648C212.441 12.96 213.305 10.816 215.033 9.216C216.782 7.59467 218.958 6.784 221.561 6.784C224.526 6.784 226.702 7.82933 228.089 9.92C228.814 11.0293 229.177 12.2453 229.177 13.568ZM222.425 14.496C223.235 14.496 223.641 14.1547 223.641 13.472C223.641 12.9813 223.449 12.5867 223.065 12.288C222.702 11.9893 222.169 11.84 221.465 11.84C220.782 11.84 220.099 12.128 219.417 12.704C218.734 13.2587 218.393 13.856 218.393 14.496H222.425Z" fill="url(#paint0_linear_185_3818)"/>
<defs>
<linearGradient id="paint0_linear_185_3818" x1="114.64" y1="-7" x2="114.64" y2="34.3189" gradientUnits="userSpaceOnUse">
<stop stop-color="#FFD95E"/>
<stop offset="1" stop-color="#FF1400"/>
</linearGradient>
</defs>
</svg>
