<svg width="300" height="300" viewBox="0 0 300 300" fill="none" xmlns="http://www.w3.org/2000/svg">
<path opacity="0.22" d="M297.603 203.25L170.434 135.557C167.697 134.099 164.329 134.09 161.587 135.534L100.26 167.818L43.5854 197.654L2.82966 219.107C0.539014 220.311 -0.312899 222.676 0.283296 224.745C0.328724 224.921 0.388676 225.097 0.46361 225.273C0.879494 226.273 1.65648 227.17 2.7997 227.782L91.1409 275.027L130.702 254.201C133.444 252.757 136.812 252.766 139.549 254.224L177.677 274.519L297.602 210.582C298.665 210.017 299.357 209.157 299.682 208.208C299.727 208.074 299.768 207.939 299.798 207.8C300.179 206.111 299.452 204.231 297.603 203.25Z" fill="#364084"/>
<path d="M288.288 163.148L170.536 100.467C167.8 99.0113 164.434 99.0035 161.691 100.448L11.7197 179.396L0 179.037V189.907L0.380296 189.644C0.723119 190.861 1.56188 191.978 2.90367 192.695L91.6462 240.154L130.348 219.78C133.089 218.336 136.458 218.345 139.195 219.804L176.924 239.887L297.709 175.492C299.289 174.649 300.045 173.154 299.991 171.681V161.956L288.288 163.148Z" fill="#A6CBF3"/>
<path d="M297.706 159.159L170.536 91.465C167.8 90.0088 164.434 90.0015 161.691 91.4456L2.93602 175.018C-0.695469 176.93 -0.71332 181.759 2.90412 183.693L91.6566 231.158L130.703 210.602C133.445 209.158 136.813 209.167 139.55 210.625L177.268 230.703L297.709 166.49C300.765 164.861 300.763 160.787 297.706 159.159Z" fill="white"/>
<path d="M297.603 157.029L170.434 89.336C167.697 87.8781 164.329 87.8686 161.587 89.3127L100.26 121.597L43.5854 151.433L2.82966 172.886C0.539014 174.09 -0.312899 176.455 0.283296 178.524C0.328724 178.7 0.388676 178.876 0.46361 179.052C0.879494 180.052 1.65648 180.95 2.7997 181.561L91.1409 228.806L130.702 207.98C133.444 206.536 136.812 206.545 139.549 208.003L177.677 228.298L297.602 164.361C298.665 163.796 299.357 162.935 299.682 161.986C299.727 161.852 299.768 161.718 299.798 161.579C300.179 159.89 299.452 158.01 297.603 157.029Z" fill="#F3F5F9"/>
<path opacity="0.46" d="M203.69 195.518C213.679 195.518 221.776 191.579 221.776 186.721C221.776 181.862 213.679 177.923 203.69 177.923C193.702 177.923 185.604 181.862 185.604 186.721C185.604 191.579 193.702 195.518 203.69 195.518Z" fill="#354594"/>
<path d="M170.298 39.181V43.9707L183.785 36.8392V32.0486L170.298 39.181Z" fill="#469B4F"/>
<path d="M170.298 48.3932V53.1834L183.785 46.0514V41.2612L170.298 48.3932Z" fill="#E15355"/>
<path d="M170.298 57.6056V62.3958L183.785 55.2638V50.4736L170.298 57.6056Z" fill="#469B4F"/>
<path d="M163.226 139.959V137.202L161.114 138.42L139.861 127.106C139.368 126.843 138.76 126.842 138.265 127.103L111.197 141.352L109.082 140.201V143.249L109.151 143.201C109.213 143.421 109.364 143.623 109.606 143.752L132.459 155.973C132.955 156.239 133.568 156.239 134.065 155.974L162.814 140.647C163.099 140.495 163.236 140.225 163.226 139.959Z" fill="#334EBE"/>
<path d="M138.246 124.115L109.593 139.198C108.938 139.543 108.935 140.415 109.588 140.764L132.44 152.985C132.937 153.251 133.549 153.251 134.047 152.986L162.796 137.659C163.347 137.365 163.347 136.629 162.795 136.336L139.843 124.118C139.349 123.856 138.741 123.854 138.246 124.115Z" fill="#A6CBF3"/>
<path d="M146.108 118.995L143.857 134.566L128.553 146.087L126.266 144.897C125.968 144.765 125.724 144.562 125.554 144.314C125.384 144.067 125.289 143.775 125.289 143.47L125.321 129.129C125.321 128.783 125.421 128.453 125.603 128.165C125.782 127.883 126.038 127.643 126.353 127.473L143.047 118.503C143.593 118.21 144.256 118.183 144.826 118.429L146.108 118.995Z" fill="#0F1F64"/>
<path d="M147.992 118.341L147.941 135.693L128.452 146.087L128.469 128.83L147.992 118.341Z" fill="#334EBE"/>
<path d="M194.648 2.81782C194.648 2.81782 194.642 2.82602 194.63 2.84548C194.493 3.04961 193.615 4.43444 193.615 6.19116L193.612 22.6218L193.603 93.2961L58.7217 169.355L58.1812 169.661L56.38 168.822C55.4419 168.384 54.6775 167.722 54.1487 166.925C53.6172 166.13 53.3213 165.201 53.3213 164.23L53.3868 73.0284C53.3896 71.6878 53.8617 70.4111 54.6948 69.3654C55.2386 68.6812 55.9373 68.0995 56.7648 67.6636L149.13 18.989L183.602 0.823253C185.672 -0.269186 187.978 -0.213856 189.851 0.632936C190.395 0.879016 194.648 2.81782 194.648 2.81782Z" fill="#334EBE"/>
<path d="M198.474 8.43644L198.471 20.0402L198.463 95.5413L58.7212 169.355L58.1808 169.641L58.2496 75.2737C58.2496 73.933 58.7216 72.6533 59.5548 71.6106C60.1014 70.9264 60.8002 70.3447 61.6249 69.9088L149.131 23.7967L188.466 3.06847C190.506 1.9929 192.773 2.03141 194.631 2.8449C196.841 3.80543 198.478 5.86017 198.474 8.43644Z" fill="#A6CBF3"/>
<path d="M191.76 10.8751V18.9045L191.751 80.1901V81.1445L191.748 92.9027L64.9041 159.903L64.913 148.476V147.521L64.958 86.2166V85.2621L64.964 75.7187C64.964 75.3463 65.0896 74.9904 65.3284 74.6924C65.4867 74.4965 65.6811 74.3364 65.9083 74.2179L188.958 9.3718C189.257 9.21482 189.565 9.13477 189.878 9.13477C190.359 9.13477 190.843 9.31943 191.205 9.63946C191.572 9.96771 191.76 10.3812 191.76 10.8751Z" fill="#0F1F64"/>
<path d="M191.751 80.1895V81.1439L64.913 148.475V147.521L191.751 80.1895Z" fill="#5E9FE9"/>
<path d="M191.76 17.9473V18.9043L64.958 86.2161V85.262L191.76 17.9473Z" fill="#5E9FE9"/>
<path d="M126.525 82.7882L125.087 83.5373V80.4749L124.46 80.8014V83.8638L123.023 84.6128V91.9926L124.46 91.2777V95.3097L125.087 94.9979V90.9664L126.525 90.2515V82.7882Z" fill="#354594"/>
<path d="M121.617 81.5062L120.216 82.2358V75.7927L119.589 76.1192V82.5623L118.115 83.3304V87.3935L119.589 86.6604V90.6276L120.216 90.3157V86.3486L121.617 85.6523V81.5062Z" fill="#354594"/>
<path d="M136.34 82.7692L134.903 83.5183V80.2068L134.276 80.5337V83.8448L132.838 84.5934V86.9154L134.276 86.2005V90.8955L134.903 90.5837V85.8887L136.34 85.1742V82.7692Z" fill="#354594"/>
<path d="M106.894 90.5386L105.493 91.2678V87.2297L104.866 87.5563V91.5947L103.391 92.3628V94.6844L104.866 93.9513V97.9184L105.493 97.6066V93.6395L106.894 92.9432V90.5386Z" fill="#354594"/>
<path d="M116.709 73.7751L115.309 74.5047V73.0369L114.681 73.3638V74.8312L113.207 75.5993V87.2088L114.681 86.4753V88.7012L115.309 88.3894V86.1635L116.709 85.4672V73.7751Z" fill="#354594"/>
<path d="M111.801 86.3312L110.364 87.0803V82.3594L109.737 82.6859V87.4068L108.299 88.1559V98.1063L109.737 97.3919V98.0233L110.364 97.7119V97.0796L111.801 96.3652V86.3312Z" fill="#354594"/>
<path d="M131.433 87.6064L129.995 88.3555V81.7273L129.368 82.0538V88.682L127.93 89.4306V99.3815L129.368 98.6666V99.8789L129.995 99.567V98.3548L131.433 97.6403V87.6064Z" fill="#354594"/>
<path d="M97.0781 96.6876L95.6402 97.4362V95.2029L95.0132 95.5298V97.7627L93.5758 98.5118V108.462L95.0132 107.748V113.355L95.6402 113.043V107.436L97.0781 106.721V96.6876Z" fill="#354594"/>
<path d="M101.986 88.9372L100.548 89.6863V88.8628L99.921 89.1893V90.0128L98.4836 90.7618V108.009L99.921 107.295V110.331L100.548 110.02V106.983L101.986 106.268V88.9372Z" fill="#354594"/>
<path d="M77.4467 95.22L76.0459 95.9496V91.9116L75.4188 92.2381V96.2762L73.9445 97.0442V99.3662L75.4188 98.6332V102.6L76.0459 102.288V98.3213L77.4467 97.6251V95.22Z" fill="#354594"/>
<path d="M92.1699 106.345L90.7326 107.093V101.543L90.1055 101.87V107.42L88.6682 108.169V115.549L90.1055 114.834V116.378L90.7326 116.066V114.523L92.1699 113.808V106.345Z" fill="#354594"/>
<path d="M80.9542 94.5205L80.327 94.847V97.9734L78.8522 98.7415V102.805L80.327 102.072V109.355L80.9542 109.044V101.76L82.3545 101.063V96.9173L80.9542 97.6465V94.5205Z" fill="#354594"/>
<path d="M85.8618 98.7878L85.2347 99.1144V100.582L83.7604 101.35V112.959L85.2347 112.226V114.452L85.8618 114.14V111.914L87.2622 111.218V99.5261L85.8618 100.256V98.7878Z" fill="#354594"/>
<path d="M72.539 98.4932L71.1012 99.2423V97.009L70.4742 97.3355V99.5688L69.0368 100.317V110.268L70.4742 109.553V115.161L71.1012 114.849V109.242L72.539 108.527V98.4932Z" fill="#354594"/>
<path d="M127.865 82.7882L126.428 83.5373V80.4749L125.8 80.8014V83.8638L124.363 84.6128V91.9926L125.8 91.2777V95.3097L126.428 94.9979V90.9664L127.865 90.2515V82.7882Z" fill="#E15355"/>
<path d="M122.958 81.5062L121.557 82.2358V75.7927L120.93 76.1192V82.5623L119.455 83.3304V87.3935L120.93 86.6604V90.6276L121.557 90.3157V86.3486L122.958 85.6523V81.5062Z" fill="#E15355"/>
<path d="M137.681 82.7692L136.243 83.5183V80.2068L135.616 80.5337V83.8448L134.178 84.5934V86.9154L135.616 86.2005V90.8955L136.243 90.5837V85.8887L137.681 85.1742V82.7692Z" fill="#469B4F"/>
<path d="M108.234 90.5386L106.834 91.2678V87.2297L106.206 87.5563V91.5947L104.732 92.3628V94.6844L106.206 93.9513V97.9184L106.834 97.6066V93.6395L108.234 92.9432V90.5386Z" fill="#469B4F"/>
<path d="M118.049 73.7751L116.649 74.5047V73.0369L116.022 73.3638V74.8312L114.548 75.5993V87.2088L116.022 86.4753V88.7012L116.649 88.3894V86.1635L118.049 85.4672V73.7751Z" fill="#469B4F"/>
<path d="M113.142 86.3312L111.704 87.0803V82.3594L111.077 82.6859V87.4068L109.64 88.1559V98.1063L111.077 97.3919V98.0233L111.704 97.7119V97.0796L113.142 96.3652V86.3312Z" fill="#E15355"/>
<path d="M132.773 87.6064L131.336 88.3555V81.7273L130.708 82.0538V88.682L129.271 89.4306V99.3815L130.708 98.6666V99.8789L131.336 99.567V98.3548L132.773 97.6403V87.6064Z" fill="#E15355"/>
<path d="M98.4184 96.6876L96.9806 97.4362V95.2029L96.3535 95.5298V97.7627L94.9162 98.5118V108.462L96.3535 107.748V113.355L96.9806 113.043V107.436L98.4184 106.721V96.6876Z" fill="#469B4F"/>
<path d="M103.326 88.9372L101.889 89.6863V88.8628L101.262 89.1893V90.0128L99.824 90.7618V108.009L101.262 107.295V110.331L101.889 110.02V106.983L103.326 106.268V88.9372Z" fill="#469B4F"/>
<path d="M78.7871 95.22L77.3862 95.9496V91.9116L76.7596 92.2381V96.2762L75.2849 97.0442V99.3662L76.7596 98.6332V102.6L77.3862 102.288V98.3213L78.7871 97.6251V95.22Z" fill="#469B4F"/>
<path d="M93.5108 106.345L92.073 107.093V101.543L91.4458 101.87V107.42L90.0085 108.169V115.549L91.4458 114.834V116.378L92.073 116.066V114.523L93.5108 113.808V106.345Z" fill="#E15355"/>
<path d="M82.2945 94.5205L81.6674 94.847V97.9734L80.1926 98.7415V102.805L81.6674 102.072V109.355L82.2945 109.044V101.76L83.6949 101.063V96.9173L82.2945 97.6465V94.5205Z" fill="#E15355"/>
<path d="M87.2021 98.7878L86.5751 99.1144V100.582L85.1008 101.35V112.959L86.5751 112.226V114.452L87.2021 114.14V111.914L88.6026 111.218V99.5261L87.2021 100.256V98.7878Z" fill="#E15355"/>
<path d="M73.8794 98.4932L72.4416 99.2423V97.009L71.8145 97.3355V99.5688L70.3772 100.317V110.268L71.8145 109.553V115.161L72.4416 114.849V109.242L73.8794 108.527V98.4932Z" fill="#469B4F"/>
<path d="M185.545 65.2522V76.3271C185.545 76.5014 185.444 76.6623 185.281 76.7492L168.738 85.5722C168.517 85.6902 168.26 85.641 168.101 85.4948C168.007 85.4087 167.946 85.2889 167.946 85.1501V73.8118C167.946 73.6354 168.05 73.4727 168.216 73.3867L184.758 64.8271C185.111 64.6446 185.545 64.8794 185.545 65.2522Z" fill="#354594"/>
<path d="M164.154 76.5996V87.6745C164.154 87.8488 164.053 88.0097 163.89 88.0966L147.348 96.9196C146.996 97.1073 146.556 96.8728 146.556 96.4975V85.1596C146.556 84.9832 146.659 84.8206 146.825 84.7345L163.368 76.1749C163.532 76.0901 163.715 76.0957 163.862 76.1641C164.03 76.2415 164.154 76.4011 164.154 76.5996Z" fill="#354594"/>
<path d="M187.114 66.1577V77.2326C187.114 77.4069 187.013 77.5677 186.85 77.6547L170.308 86.4776C170.086 86.5957 169.83 86.5464 169.67 86.4003C169.576 86.3142 169.516 86.1944 169.516 86.0556V74.7173C169.516 74.5408 169.619 74.3782 169.786 74.2917L186.328 65.7321C186.68 65.5505 187.114 65.7853 187.114 66.1577Z" fill="#E15355"/>
<path d="M165.723 77.5055V88.5804C165.723 88.7547 165.623 88.9155 165.46 89.0025L148.917 97.8254C148.565 98.0131 148.125 97.7788 148.125 97.4034V86.0651C148.125 85.8886 148.228 85.726 148.395 85.6399L164.937 77.0803C165.102 76.9951 165.284 77.0012 165.432 77.0695C165.6 77.1474 165.723 77.307 165.723 77.5055Z" fill="#469B4F"/>
<path d="M146.556 79.7335V45.3138L185.604 24.4187V59.0818L146.556 79.7335Z" fill="#354594"/>
<path d="M147.976 80.7171V46.2975L187.024 25.4023V60.0654L147.976 80.7171Z" fill="#F6F6F4"/>
<path d="M184.853 37.1768V37.7359L150.502 56.0588V55.4995L184.853 37.1768Z" fill="#0F1F64"/>
<path d="M162.279 45.981V47.9704L152.377 53.2064V51.217L162.279 45.981Z" fill="#A6CBF3"/>
<path d="M162.279 57.3635L152.377 62.5994V60.6105L162.279 55.374V57.3635Z" fill="#A6CBF3"/>
<path d="M162.279 66.3949L152.377 71.6314V69.642L162.279 64.4055V66.3949Z" fill="#A6CBF3"/>
<path d="M184.853 46.3906V46.9477L150.502 65.2705V64.7109L184.853 46.3906Z" fill="#0F1F64"/>
<path d="M184.853 55.6038V56.1608L150.502 74.4835V73.9239L184.853 55.6038Z" fill="#0F1F64"/>
<path d="M145.082 43.1946H144.017V105.429H145.082V43.1946Z" fill="#5E9FE9"/>
<path d="M221.813 20.6021V104.956C221.813 105.681 222.245 106.348 222.936 106.692L273.331 131.774C274.755 132.482 276.482 131.53 276.482 130.037V45.6832C276.482 44.9575 276.051 44.2906 275.359 43.9464L224.964 18.8648C224.373 18.5707 223.73 18.563 223.179 18.761C222.404 19.0404 221.813 19.7285 221.813 20.6021Z" fill="#334EBE"/>
<path d="M219.328 21.9135V106.267C219.328 106.993 219.76 107.66 220.451 108.004L270.846 133.085C272.27 133.794 273.997 132.842 273.997 131.349V46.995C273.997 46.2693 273.566 45.6025 272.874 45.2582L222.479 20.1771C221.888 19.883 221.245 19.8752 220.694 20.0733C219.919 20.3518 219.328 21.0399 219.328 21.9135Z" fill="#F6F6F4"/>
<path d="M235.098 39.1411C241.868 35.8478 252.322 41.8813 258.447 52.6184C260.763 56.6785 262.127 60.8299 262.566 64.5998C263.285 70.8028 261.489 75.9761 257.28 78.0239C254.375 79.4368 250.795 79.1345 247.169 77.4807C242.339 75.279 237.426 70.6787 233.927 64.5457C233.12 63.1302 232.427 61.7035 231.851 60.2846C231.848 60.2746 231.842 60.2638 231.839 60.2538C229.762 55.145 229.178 50.1525 230.039 46.2152L230.042 46.2052C230.752 42.9629 232.445 40.4316 235.098 39.1411Z" fill="#A6CAF7"/>
<path d="M258.447 52.6184C252.322 41.8813 241.868 35.8478 235.098 39.1411C232.443 40.4329 230.748 42.9673 230.039 46.2152L262.566 64.5998C262.128 60.8294 260.763 56.6785 258.447 52.6184Z" fill="#5E9FE9"/>
<path d="M230.043 46.2054L230.133 46.2036L248.307 56.5407L231.852 60.2851C229.765 55.1667 229.178 50.1621 230.04 46.2153L230.043 46.2054Z" fill="#334EBE"/>
<path d="M231.84 60.2538L248.124 56.4861L247.169 77.4807C242.339 75.279 237.426 70.6787 233.927 64.5457C233.12 63.1302 232.427 61.7035 231.851 60.2846C231.849 60.2746 231.843 60.2638 231.84 60.2538Z" fill="#FFB240"/>
<path d="M229.658 75.2277V80.5251L224.588 77.8148V72.5173L229.658 75.2277Z" fill="#334EBE"/>
<path d="M229.631 84.2175V89.5148L224.561 86.8045V81.5071L229.631 84.2175Z" fill="#5E9FE9"/>
<path d="M229.604 93.2067V98.5041L224.534 95.7938V90.4963L229.604 93.2067Z" fill="#A6CAF7"/>
<path d="M229.576 102.196V107.494L224.507 104.783V99.4858L229.576 102.196Z" fill="#FFB240"/>
<path d="M232.455 76.9692V78.3527L254.472 90.1806V88.7971L232.455 76.9692Z" fill="#0F1F64"/>
<path d="M232.455 81.5417L244.975 88.2676V86.8841L232.455 80.1582V81.5417Z" fill="#0F1F64"/>
<path d="M232.024 85.3408V86.7244L254.041 98.5522V97.1691L232.024 85.3408Z" fill="#0F1F64"/>
<path d="M232.024 89.9131L244.543 96.639V95.2555L232.024 88.53V89.9131Z" fill="#0F1F64"/>
<path d="M232.024 94.5098V95.8933L254.041 107.721V106.338L232.024 94.5098Z" fill="#0F1F64"/>
<path d="M232.024 99.0825L244.543 105.808V104.425L232.024 97.6995V99.0825Z" fill="#0F1F64"/>
<path d="M231.592 102.882V104.265L253.609 116.092V114.709L231.592 102.882Z" fill="#0F1F64"/>
<path d="M231.592 107.454L244.111 114.18V112.796L231.592 106.071V107.454Z" fill="#0F1F64"/>
<path opacity="0.46" d="M98.2409 189.725L122.885 170.806L137.137 169.161L155.843 152.71L175.736 148.597L200.084 128.856L204.835 130.775L202.162 117.066L182.269 123.646L168.908 139.274L155.843 128.307L132.733 162.05C132.733 162.05 118.432 148.049 117.244 148.871C116.056 149.694 98.2409 189.725 98.2409 189.725Z" fill="#354594"/>
<path d="M204.835 85.8096L183.921 98.684L187.888 100.777L162.677 141.292L175.291 148.342L200.934 107.661L204.835 109.719V85.8096Z" fill="#469D50"/>
<path d="M150.063 121.061L163.008 141.599L175.623 148.649L163.008 128.111L150.063 121.061Z" fill="#E15355"/>
<path d="M124.502 162.137L150.063 121.061L163.008 128.111L137.116 169.187L124.502 162.137Z" fill="#469D50"/>
<path d="M124.502 148.649L137.116 169.187L124.502 162.137L111.556 141.599L124.502 148.649Z" fill="#E15355"/>
<path d="M85.6636 182.675L98.6099 189.725L124.502 148.649L111.556 141.599L85.6636 182.675Z" fill="#469D50"/>
<g opacity="0.32">
<path d="M88.9799 188.318C83.2625 188.318 78.6273 190.811 78.6273 193.885C78.6273 196.96 83.2625 199.452 88.9799 199.452C94.6974 199.452 99.3321 196.96 99.3321 193.885C99.3321 190.811 94.6974 188.318 88.9799 188.318Z" fill="#0E1B62"/>
</g>
<g opacity="0.32">
<path d="M79.7299 186.243C79.7299 183.168 75.0952 180.676 69.3777 180.676C63.6602 180.676 59.0251 183.168 59.0251 186.243C59.0251 188.492 61.5068 190.428 65.0765 191.306C60.5968 191.918 57.2829 194.101 57.2829 196.701C57.2829 199.775 61.918 202.268 67.635 202.268C73.3525 202.268 77.9872 199.775 77.9872 196.701C77.9872 194.452 75.5054 192.516 71.9357 191.637C76.4158 191.025 79.7299 188.842 79.7299 186.243Z" fill="#0E1B62"/>
</g>
<path d="M65.0919 185.165C65.0919 188.24 69.6994 190.732 75.3841 190.732C76.8284 190.732 78.2049 190.57 79.453 190.279C79.6933 190.223 79.9284 190.163 80.1584 190.097C80.2661 190.067 80.3728 190.036 80.4786 190.003C80.6098 189.963 80.7387 189.921 80.8651 189.878C81.6482 189.61 82.3604 189.288 82.9819 188.92C83.0147 188.9 83.0456 188.882 83.077 188.863C84.6928 187.879 85.6754 186.584 85.6754 185.165V185.162H85.6763V182.666H84.5828C84.1781 182.232 83.6699 181.828 83.077 181.469C83.0456 181.448 83.0142 181.43 82.9819 181.41C82.3604 181.043 81.6482 180.72 80.8651 180.452C80.7387 180.409 80.6098 180.367 80.4786 180.327C80.3733 180.294 80.2666 180.262 80.1584 180.233C79.9289 180.167 79.6933 180.106 79.453 180.051C78.2049 179.759 76.8289 179.598 75.3841 179.598C71.3615 179.598 67.8771 180.847 66.1845 182.666H65.0929V185.097C65.092 185.119 65.0919 185.143 65.0919 185.165Z" fill="#F0792D"/>
<path d="M79.4526 179.381V190.279C79.6929 190.224 79.928 190.163 80.1585 190.097V179.38L79.4526 179.381Z" fill="white"/>
<path d="M80.4787 180.327V190.002C80.6098 189.962 80.7387 189.92 80.8652 189.877C81.6482 189.61 82.3605 189.287 82.982 188.919C83.0147 188.9 83.0457 188.881 83.0771 188.862V181.468C83.0457 181.448 83.0143 181.429 82.982 181.41C82.3605 181.042 81.6482 180.719 80.8652 180.452C80.7387 180.41 80.6098 180.368 80.4787 180.327Z" fill="white"/>
<path d="M75.3832 188.936C81.0669 188.936 85.6744 186.444 85.6744 183.369C85.6744 180.295 81.0669 177.802 75.3832 177.802C69.6995 177.802 65.0919 180.295 65.0919 183.369C65.0919 186.444 69.6995 188.936 75.3832 188.936Z" fill="white"/>
<path d="M75.3832 188.72C81.0669 188.72 85.6744 186.228 85.6744 183.153C85.6744 180.079 81.0669 177.586 75.3832 177.586C69.6995 177.586 65.0919 180.079 65.0919 183.153C65.0919 186.228 69.6995 188.72 75.3832 188.72Z" fill="#FFB240"/>
<path d="M67.1025 183.153C67.1025 185.738 70.9762 187.834 75.7551 187.834C80.5336 187.834 84.4077 185.738 84.4077 183.153C84.4077 180.569 80.534 178.473 75.7551 178.473C70.9762 178.473 67.1025 180.569 67.1025 183.153ZM69.064 183.162C69.064 181.163 72.0595 179.542 75.7546 179.542C79.4498 179.542 82.4453 181.163 82.4453 183.162C82.4453 185.161 79.4498 186.781 75.7546 186.781C72.0595 186.781 69.064 185.161 69.064 183.162Z" fill="#FFD979"/>
<path d="M71.8993 182.249L71.9634 182.168C71.9751 182.153 72.2406 181.823 72.7225 181.494L71.9259 181.067L72.5905 180.711L73.3774 181.133C73.7652 180.966 74.1683 180.873 74.5762 180.856C74.6334 180.853 74.6905 180.852 74.7472 180.852C75.6506 180.852 76.3896 181.17 76.6299 181.663C76.7751 181.961 76.7101 182.28 76.4455 182.559C76.0774 182.948 75.9162 183.29 75.9921 183.521C76.0502 183.697 76.2375 183.777 76.3841 183.812C76.5705 183.857 76.7555 183.879 76.9339 183.879C78.1137 183.879 78.73 182.889 78.736 182.879L78.751 182.854L78.7622 182.824L79.6587 183.052L79.6381 183.118C79.6357 183.126 79.6329 183.134 79.6301 183.142C79.6226 183.229 79.5748 183.489 79.2882 183.714C79.1538 183.822 79.0114 183.922 78.8639 184.012L79.6479 184.433L78.9754 184.794L78.1567 184.355C77.6991 184.524 77.2028 184.613 76.7185 184.613C75.6366 184.613 74.7543 184.17 74.6658 183.581C74.5969 183.121 74.8587 182.776 75.0695 182.499C75.2175 182.304 75.3448 182.136 75.3102 181.992C75.2858 181.893 75.1833 181.797 74.9964 181.699C74.8494 181.623 74.6887 181.584 74.5187 181.584C73.7464 181.584 72.9858 182.376 72.916 182.451L72.8894 182.503L71.9869 182.285L71.9934 182.272L71.8993 182.249Z" fill="#FFD979"/>
<path d="M63.6072 182.815C63.6072 185.891 68.2148 188.383 73.8995 188.383C75.3434 188.383 76.7203 188.221 77.9684 187.93C78.2086 187.874 78.4442 187.814 78.6736 187.748C78.7814 187.718 78.8882 187.686 78.994 187.653C79.1252 187.613 79.2539 187.571 79.3804 187.528C80.1634 187.261 80.8758 186.939 81.4973 186.57C81.5301 186.551 81.561 186.533 81.5924 186.513C83.2082 185.529 84.1907 184.234 84.1907 182.815V182.813H84.1922V180.316H83.098C82.6929 179.882 82.1853 179.479 81.5924 179.119C81.561 179.099 81.5296 179.08 81.4973 179.061C80.8758 178.693 80.1634 178.37 79.3804 178.103C79.2539 178.059 79.1252 178.017 78.994 177.978C78.8886 177.944 78.7818 177.913 78.6736 177.883C78.4442 177.817 78.2086 177.757 77.9684 177.701C76.7203 177.41 75.3448 177.249 73.8995 177.249C69.8769 177.249 66.392 178.498 64.6999 180.316H63.6086V182.747C63.6072 182.77 63.6072 182.794 63.6072 182.815Z" fill="#F0792D"/>
<path d="M77.969 177.031V187.93C78.2093 187.875 78.4444 187.814 78.6748 187.749V177.031H77.969Z" fill="white"/>
<path d="M78.9941 177.979V187.653C79.1252 187.614 79.254 187.572 79.3804 187.528C80.1635 187.261 80.8758 186.939 81.4973 186.57C81.5301 186.551 81.5611 186.533 81.5925 186.513V179.12C81.5611 179.099 81.5296 179.081 81.4973 179.061C80.8758 178.694 80.1635 178.371 79.3804 178.103C79.254 178.061 79.1257 178.019 78.9941 177.979Z" fill="white"/>
<path d="M73.899 186.587C79.5828 186.587 84.1902 184.094 84.1902 181.02C84.1902 177.945 79.5828 175.453 73.899 175.453C68.2153 175.453 63.6077 177.945 63.6077 181.02C63.6077 184.094 68.2153 186.587 73.899 186.587Z" fill="white"/>
<path d="M73.8993 186.372C79.583 186.372 84.1905 183.879 84.1905 180.805C84.1905 177.73 79.583 175.238 73.8993 175.238C68.2156 175.238 63.608 177.73 63.608 180.805C63.608 183.879 68.2156 186.372 73.8993 186.372Z" fill="#FFB240"/>
<path d="M65.6183 180.805C65.6183 183.389 69.4919 185.485 74.2708 185.485C79.0498 185.485 82.9233 183.389 82.9233 180.805C82.9233 178.22 79.0498 176.124 74.2708 176.124C69.4919 176.124 65.6183 178.22 65.6183 180.805ZM67.5796 180.812C67.5796 178.813 70.5752 177.193 74.2704 177.193C77.9656 177.193 80.961 178.813 80.961 180.812C80.961 182.811 77.9656 184.432 74.2704 184.432C70.5752 184.432 67.5796 182.811 67.5796 180.812Z" fill="#FFD979"/>
<path d="M70.415 179.9L70.4793 179.819C70.491 179.804 70.7565 179.474 71.2384 179.145L70.4418 178.718L71.1063 178.362L71.8931 178.784C72.2814 178.618 72.6842 178.524 73.0921 178.507C73.1492 178.505 73.2064 178.504 73.263 178.504C74.1665 178.504 74.9055 178.822 75.1458 179.315C75.2909 179.613 75.2258 179.932 74.9612 180.211C74.5926 180.6 74.432 180.942 74.5079 181.173C74.5659 181.349 74.7533 181.428 74.8999 181.464C75.0863 181.508 75.2712 181.531 75.4497 181.531C76.6294 181.531 77.2458 180.54 77.2519 180.53L77.2669 180.506L77.2781 180.475L78.1745 180.703L78.1539 180.769C78.1516 180.777 78.1487 180.785 78.1459 180.793C78.1384 180.881 78.0911 181.14 77.8041 181.365C77.6696 181.473 77.5273 181.573 77.3797 181.663L78.1638 182.084L77.4912 182.444L76.6725 182.005C76.215 182.175 75.7185 182.264 75.2343 182.264C74.1524 182.264 73.2701 181.82 73.1816 181.232C73.1128 180.772 73.3745 180.427 73.5852 180.149C73.7332 179.955 73.8607 179.786 73.826 179.643C73.8017 179.543 73.699 179.447 73.5122 179.35C73.3651 179.274 73.2045 179.235 73.0345 179.235C72.2622 179.235 71.5017 180.027 71.4319 180.102L71.4051 180.154L70.5026 179.936L70.5097 179.922L70.415 179.9Z" fill="#FFD979"/>
<path d="M65.5865 179.854C65.5865 182.929 70.194 185.421 75.8787 185.421C77.323 185.421 78.6995 185.26 79.9476 184.969C80.1878 184.913 80.423 184.853 80.6529 184.787C80.7607 184.757 80.8675 184.726 80.9733 184.692C81.1045 184.652 81.2332 184.61 81.3597 184.567C82.1427 184.3 82.8551 183.978 83.4766 183.609C83.5089 183.59 83.5402 183.572 83.5716 183.552C85.1874 182.568 86.17 181.273 86.17 179.854V179.852H86.1709V177.356H85.0773C84.6727 176.921 84.1645 176.518 83.5716 176.159C83.5402 176.138 83.5089 176.12 83.4766 176.1C82.8551 175.733 82.1427 175.409 81.3597 175.142C81.2332 175.099 81.1045 175.057 80.9733 175.017C80.868 174.984 80.7611 174.952 80.6529 174.922C80.4235 174.857 80.1878 174.796 79.9476 174.74C78.6995 174.449 77.3235 174.288 75.8787 174.288C71.8561 174.288 68.3718 175.537 66.6792 177.356H65.5875V179.787C65.5865 179.809 65.5865 179.832 65.5865 179.854Z" fill="#F0792D"/>
<path d="M79.9475 174.07V184.969C80.1878 184.913 80.4229 184.852 80.6534 184.787V174.07L79.9475 174.07Z" fill="white"/>
<path d="M80.9734 175.017V184.692C81.1045 184.652 81.2333 184.61 81.3597 184.567C82.1428 184.3 82.8552 183.977 83.4766 183.609C83.509 183.589 83.5403 183.571 83.5717 183.552V176.158C83.5403 176.138 83.509 176.119 83.4766 176.1C82.8552 175.733 82.1428 175.409 81.3597 175.142C81.2333 175.099 81.1045 175.057 80.9734 175.017Z" fill="white"/>
<path d="M75.8782 183.625C81.5619 183.625 86.1696 181.133 86.1696 178.058C86.1696 174.984 81.5619 172.491 75.8782 172.491C70.1945 172.491 65.587 174.984 65.587 178.058C65.587 181.133 70.1945 183.625 75.8782 183.625Z" fill="white"/>
<path d="M75.8782 183.41C81.5619 183.41 86.1695 180.917 86.1695 177.843C86.1695 174.768 81.5619 172.276 75.8782 172.276C70.1945 172.276 65.587 174.768 65.587 177.843C65.587 180.917 70.1945 183.41 75.8782 183.41Z" fill="#FFB240"/>
<path d="M67.5971 177.843C67.5971 180.428 71.4706 182.523 76.2496 182.523C81.028 182.523 84.9021 180.428 84.9021 177.843C84.9021 175.258 81.0285 173.162 76.2496 173.162C71.4711 173.162 67.5971 175.258 67.5971 177.843ZM69.5589 177.85C69.5589 175.852 72.5544 174.231 76.2496 174.231C79.9447 174.231 82.9403 175.852 82.9403 177.85C82.9403 179.849 79.9447 181.47 76.2496 181.47C72.5544 181.47 69.5589 179.849 69.5589 177.85Z" fill="#FFD979"/>
<path d="M72.3942 176.938L72.4584 176.857C72.4701 176.843 72.7357 176.512 73.2176 176.184L72.421 175.757L73.0855 175.401L73.8723 175.823C74.2601 175.656 74.6634 175.563 75.0708 175.546C75.128 175.543 75.1856 175.542 75.2418 175.542C76.1452 175.542 76.8842 175.86 77.1245 176.353C77.2697 176.652 77.2046 176.97 76.9399 177.249C76.5718 177.638 76.4107 177.98 76.4866 178.211C76.5447 178.387 76.732 178.467 76.8785 178.502C77.0649 178.547 77.25 178.569 77.4284 178.569C78.6081 178.569 79.2244 177.578 79.2305 177.568L79.2456 177.544L79.2568 177.514L80.1532 177.741L80.1326 177.808C80.1302 177.816 80.1275 177.824 80.1247 177.831C80.1172 177.919 80.0699 178.178 79.7828 178.404C79.6484 178.512 79.506 178.612 79.3585 178.702L80.1424 179.123L79.4699 179.483L78.6513 179.044C78.1937 179.214 77.6972 179.303 77.213 179.303C76.1311 179.303 75.2487 178.859 75.1602 178.271C75.0914 177.811 75.3532 177.466 75.564 177.188C75.712 176.994 75.8393 176.825 75.8042 176.682C75.7798 176.582 75.6773 176.487 75.4904 176.389C75.3434 176.313 75.1827 176.274 75.0127 176.274C74.2404 176.274 73.4798 177.066 73.41 177.141L73.3834 177.193L72.4809 176.975L72.4879 176.961L72.3942 176.938Z" fill="#FFD979"/>
<path d="M63.4424 176.892C63.4424 179.967 68.05 182.46 73.7347 182.46C75.1786 182.46 76.5555 182.298 77.8036 182.007C78.0438 181.951 78.279 181.891 78.509 181.825C78.6167 181.795 78.7234 181.764 78.8288 181.73C78.9599 181.691 79.0887 181.649 79.2151 181.605C79.9982 181.338 80.7105 181.016 81.332 180.647C81.3643 180.628 81.3958 180.61 81.4272 180.59C83.0429 179.607 84.0254 178.312 84.0254 176.892V176.89H84.0264V174.393H82.9328C82.5277 173.959 82.0201 173.556 81.4272 173.196C81.3958 173.176 81.3643 173.157 81.332 173.138C80.7105 172.771 79.9982 172.447 79.2151 172.18C79.0887 172.137 78.9599 172.095 78.8288 172.055C78.7234 172.022 78.6167 171.99 78.509 171.96C78.2795 171.895 78.0438 171.834 77.8036 171.778C76.5555 171.487 75.1795 171.325 73.7347 171.325C69.7121 171.325 66.2277 172.574 64.5351 174.393H63.4439V176.824C63.4425 176.847 63.4424 176.871 63.4424 176.892Z" fill="#F0792D"/>
<path d="M77.8036 171.108V182.007C78.0438 181.952 78.279 181.891 78.5094 181.826V171.108H77.8036Z" fill="white"/>
<path d="M78.8292 172.055V181.73C78.9603 181.691 79.0891 181.649 79.2155 181.605C79.9986 181.338 80.7109 181.016 81.3324 180.647C81.3647 180.628 81.3962 180.61 81.4275 180.59V173.197C81.3962 173.176 81.3647 173.158 81.3324 173.138C80.7109 172.771 79.9986 172.448 79.2155 172.18C79.0891 172.137 78.9603 172.095 78.8292 172.055Z" fill="white"/>
<path d="M63.4429 175.097C63.4429 178.171 68.0505 180.664 73.7343 180.664C79.418 180.664 84.0255 178.171 84.0255 175.097C84.0255 172.022 79.418 169.53 73.7343 169.53C68.0505 169.53 63.4429 172.022 63.4429 175.097Z" fill="white"/>
<path d="M63.4429 174.881C63.4429 177.956 68.0505 180.448 73.7342 180.448C79.418 180.448 84.0254 177.956 84.0254 174.881C84.0254 171.807 79.418 169.314 73.7342 169.314C68.0505 169.314 63.4429 171.807 63.4429 174.881Z" fill="#FFB240"/>
<path d="M65.453 174.881C65.453 177.466 69.3266 179.562 74.1056 179.562C78.884 179.562 82.7582 177.466 82.7582 174.881C82.7582 172.297 78.8845 170.201 74.1056 170.201C69.3271 170.201 65.453 172.297 65.453 174.881ZM67.4148 174.889C67.4148 172.89 70.4104 171.27 74.1056 171.27C77.8007 171.27 80.7962 172.89 80.7962 174.889C80.7962 176.888 77.8007 178.509 74.1056 178.509C70.4104 178.509 67.4148 176.888 67.4148 174.889Z" fill="#FFD979"/>
<path d="M70.2502 173.977L70.3144 173.896C70.3261 173.881 70.5916 173.551 71.0735 173.222L70.2769 172.795L70.9414 172.439L71.7283 172.861C72.1161 172.695 72.5193 172.601 72.9267 172.584C72.9839 172.581 73.0415 172.581 73.0977 172.581C74.0011 172.581 74.7401 172.899 74.9804 173.392C75.126 173.69 75.0605 174.009 74.7958 174.288C74.4277 174.677 74.2667 175.019 74.3426 175.25C74.4007 175.426 74.588 175.505 74.7346 175.541C74.921 175.585 75.106 175.608 75.2844 175.608C76.4642 175.608 77.0805 174.618 77.0865 174.608L77.1015 174.583L77.1127 174.553L78.0092 174.781L77.9886 174.847C77.9862 174.855 77.9834 174.862 77.9806 174.87C77.9731 174.958 77.9253 175.217 77.6387 175.442C77.5043 175.55 77.3619 175.65 77.2144 175.74L77.9984 176.161L77.3259 176.522L76.5072 176.083C76.0496 176.252 75.5532 176.341 75.0689 176.341C73.987 176.341 73.1048 175.898 73.0163 175.309C72.9474 174.849 73.2091 174.504 73.4199 174.227C73.5679 174.032 73.6953 173.864 73.6602 173.72C73.6359 173.621 73.5332 173.525 73.3464 173.427C73.1993 173.351 73.0387 173.312 72.8692 173.312C72.0969 173.312 71.3363 174.104 71.2665 174.179L71.2399 174.231L70.3374 174.013L70.3439 173.999L70.2502 173.977Z" fill="#FFD979"/>
<path d="M62.5901 195.646C62.5901 198.721 67.1975 201.213 72.8822 201.213C74.3266 201.213 75.7035 201.052 76.9516 200.761C77.1918 200.705 77.427 200.645 77.6569 200.579C77.7647 200.549 77.8715 200.517 77.9773 200.484C78.1085 200.444 78.2372 200.402 78.3637 200.359C79.1467 200.092 79.8591 199.77 80.4806 199.401C80.5129 199.382 80.5442 199.364 80.5756 199.344C82.1914 198.36 83.174 197.065 83.174 195.646V195.644H83.1749V193.147H82.0813C81.6762 192.713 81.1685 192.31 80.5756 191.95C80.5442 191.93 80.5129 191.911 80.4806 191.892C79.8586 191.524 79.1467 191.201 78.3637 190.934C78.2372 190.89 78.1085 190.848 77.9773 190.809C77.8719 190.775 77.7651 190.744 77.6569 190.714C77.4275 190.648 77.1918 190.588 76.9516 190.532C75.7035 190.241 74.3275 190.08 72.8822 190.08C68.8596 190.08 65.3752 191.328 63.6826 193.147H62.591V195.578C62.5901 195.601 62.5901 195.624 62.5901 195.646Z" fill="#F0792D"/>
<path d="M76.9512 189.862V200.761C77.1915 200.705 77.4266 200.644 77.6571 200.579V189.862H76.9512Z" fill="white"/>
<path d="M77.9768 190.809V200.484C78.1079 200.444 78.2368 200.402 78.3633 200.359C79.1463 200.091 79.8587 199.769 80.4802 199.401C80.5125 199.381 80.5438 199.363 80.5752 199.344V191.95C80.5438 191.93 80.5125 191.911 80.4802 191.892C79.8582 191.524 79.1463 191.201 78.3633 190.934C78.2368 190.891 78.1079 190.849 77.9768 190.809Z" fill="white"/>
<path d="M72.8818 199.417C78.5655 199.417 83.1731 196.925 83.1731 193.85C83.1731 190.776 78.5655 188.283 72.8818 188.283C67.1981 188.283 62.5906 190.776 62.5906 193.85C62.5906 196.925 67.1981 199.417 72.8818 199.417Z" fill="white"/>
<path d="M72.8817 199.202C78.5655 199.202 83.1731 196.709 83.1731 193.635C83.1731 190.56 78.5655 188.068 72.8817 188.068C67.198 188.068 62.5905 190.56 62.5905 193.635C62.5905 196.709 67.198 199.202 72.8817 199.202Z" fill="#FFB240"/>
<path d="M64.6006 193.635C64.6006 196.22 68.4742 198.315 73.2531 198.315C78.0316 198.315 81.9057 196.22 81.9057 193.635C81.9057 191.05 78.032 188.955 73.2531 188.955C68.4747 188.955 64.6006 191.05 64.6006 193.635ZM66.5625 193.643C66.5625 191.644 69.5579 190.023 73.2531 190.023C76.9483 190.023 79.9439 191.644 79.9439 193.643C79.9439 195.642 76.9483 197.262 73.2531 197.262C69.5579 197.262 66.5625 195.642 66.5625 193.643Z" fill="#FFD979"/>
<path d="M69.3978 192.73L69.4619 192.649C69.4736 192.634 69.7392 192.304 70.2211 191.976L69.4244 191.549L70.0891 191.193L70.8758 191.615C71.2641 191.448 71.6669 191.355 72.0748 191.337C72.132 191.335 72.1896 191.334 72.2458 191.334C73.1492 191.334 73.8882 191.652 74.1285 192.145C74.2741 192.444 74.2085 192.762 73.9439 193.041C73.5754 193.431 73.4147 193.772 73.4906 194.003C73.5487 194.179 73.7359 194.259 73.8825 194.294C74.0689 194.339 74.254 194.362 74.4324 194.362C75.6121 194.362 76.2284 193.371 76.2345 193.361L76.2495 193.336L76.2613 193.306L77.1577 193.534L77.137 193.6C77.1347 193.608 77.1319 193.616 77.1291 193.624C77.1216 193.711 77.0743 193.97 76.7872 194.196C76.6528 194.304 76.5105 194.404 76.3625 194.494L77.1468 194.915L76.4744 195.275L75.6557 194.836C75.1982 195.006 74.7017 195.095 74.2174 195.095C73.1356 195.095 72.2532 194.651 72.1647 194.063C72.0954 193.602 72.3577 193.257 72.5684 192.98C72.7164 192.785 72.8438 192.617 72.8091 192.474C72.7848 192.374 72.6822 192.278 72.4954 192.181C72.3483 192.104 72.1877 192.065 72.0176 192.065C71.2454 192.065 70.4847 192.858 70.4149 192.932L70.3883 192.985L69.4858 192.767L69.4923 192.753L69.3978 192.73Z" fill="#FFD979"/>
<path d="M61.1059 193.297C61.1059 196.372 65.713 198.864 71.3981 198.864C72.842 198.864 74.2189 198.703 75.467 198.412C75.7073 198.356 75.9429 198.296 76.1724 198.23C76.2801 198.2 76.3868 198.169 76.4922 198.135C76.6234 198.095 76.7521 198.053 76.8786 198.01C77.6616 197.743 78.3735 197.421 78.9955 197.052C79.0278 197.033 79.0592 197.015 79.0906 196.995C80.7064 196.011 81.6889 194.717 81.6889 193.297V193.295H81.6899V190.798H80.5962C80.1911 190.364 79.6835 189.961 79.0906 189.601C79.0592 189.581 79.0278 189.562 78.9955 189.543C78.3735 189.176 77.6616 188.852 76.8786 188.585C76.7521 188.542 76.6234 188.5 76.4922 188.46C76.3868 188.427 76.2801 188.395 76.1724 188.365C75.9429 188.299 75.7073 188.239 75.467 188.183C74.2189 187.892 72.8434 187.731 71.3981 187.731C67.3756 187.731 63.8906 188.98 62.1985 190.798H61.1068V193.229C61.1059 193.252 61.1059 193.276 61.1059 193.297Z" fill="#F0792D"/>
<path d="M75.467 187.513V198.412C75.7073 198.356 75.9424 198.295 76.1728 198.23V187.513H75.467Z" fill="white"/>
<path d="M76.4927 188.46V198.135C76.6239 198.095 76.7526 198.053 76.8791 198.01C77.6622 197.743 78.374 197.421 78.996 197.052C79.0283 197.033 79.0597 197.015 79.0911 196.995V189.601C79.0597 189.581 79.0283 189.563 78.996 189.543C78.374 189.176 77.6622 188.852 76.8791 188.585C76.7526 188.542 76.6239 188.5 76.4927 188.46Z" fill="white"/>
<path d="M71.3977 197.069C77.0814 197.069 81.6889 194.576 81.6889 191.502C81.6889 188.427 77.0814 185.935 71.3977 185.935C65.714 185.935 61.1064 188.427 61.1064 191.502C61.1064 194.576 65.714 197.069 71.3977 197.069Z" fill="white"/>
<path d="M71.398 196.853C77.0817 196.853 81.6892 194.361 81.6892 191.286C81.6892 188.212 77.0817 185.719 71.398 185.719C65.7143 185.719 61.1067 188.212 61.1067 191.286C61.1067 194.361 65.7143 196.853 71.398 196.853Z" fill="#FFB240"/>
<path d="M63.1165 191.286C63.1165 193.871 66.9902 195.966 71.7691 195.966C76.5476 195.966 80.4217 193.871 80.4217 191.286C80.4217 188.701 76.5481 186.606 71.7691 186.606C66.9907 186.605 63.1165 188.701 63.1165 191.286ZM65.0779 191.294C65.0779 189.295 68.0735 187.674 71.7687 187.674C75.4639 187.674 78.4593 189.295 78.4593 191.294C78.4593 193.293 75.4639 194.913 71.7687 194.913C68.0735 194.913 65.0779 193.293 65.0779 191.294Z" fill="#FFD979"/>
<path d="M67.9138 190.381L67.978 190.301C67.9897 190.286 68.2553 189.955 68.7372 189.627L67.9405 189.2L68.605 188.844L69.3919 189.266C69.7797 189.1 70.1828 189.006 70.5903 188.989C70.6474 188.986 70.705 188.985 70.7612 188.985C71.6647 188.985 72.4037 189.304 72.644 189.797C72.7896 190.095 72.7241 190.413 72.4595 190.693C72.0914 191.082 71.9303 191.424 72.0062 191.655C72.0642 191.831 72.2515 191.91 72.3981 191.946C72.5845 191.99 72.7696 192.013 72.948 192.013C74.1277 192.013 74.744 191.022 74.7501 191.012L74.7651 190.988L74.7763 190.957L75.6727 191.185L75.6521 191.252C75.6498 191.259 75.647 191.267 75.6441 191.275C75.6366 191.363 75.5889 191.622 75.3023 191.847C75.1679 191.955 75.0255 192.055 74.8775 192.145L75.662 192.566L74.9894 192.927L74.1708 192.488C73.7132 192.657 73.2167 192.746 72.7325 192.746C71.6506 192.746 70.7683 192.303 70.6798 191.714C70.6105 191.254 70.8727 190.909 71.0834 190.631C71.2314 190.437 71.3589 190.269 71.3242 190.125C71.2999 190.026 71.1973 189.93 71.0104 189.832C70.8633 189.756 70.7028 189.717 70.5332 189.717C69.761 189.717 69.0003 190.509 68.9305 190.584L68.9039 190.636L68.0014 190.418L68.0084 190.404L67.9138 190.381Z" fill="#FFD979"/>
<path d="M83.7271 192.211C83.7271 195.286 88.3341 197.779 94.0193 197.779C95.4632 197.779 96.8401 197.617 98.0882 197.326C98.3285 197.27 98.564 197.21 98.7934 197.144C98.9012 197.114 99.008 197.083 99.1134 197.05C99.2445 197.01 99.3733 196.968 99.4997 196.925C100.283 196.657 100.995 196.335 101.617 195.967C101.649 195.947 101.68 195.929 101.712 195.91C103.328 194.926 104.31 193.631 104.31 192.211V192.209H104.311V189.713H103.217C102.812 189.278 102.305 188.875 101.712 188.515C101.68 188.495 101.649 188.477 101.617 188.457C100.995 188.089 100.283 187.766 99.4997 187.499C99.3733 187.456 99.2445 187.414 99.1134 187.374C99.008 187.341 98.9012 187.309 98.7934 187.279C98.564 187.214 98.3285 187.153 98.0882 187.097C96.8401 186.806 95.4646 186.645 94.0193 186.645C89.9967 186.645 86.5118 187.894 84.8197 189.713H83.728V192.144C83.727 192.166 83.7271 192.19 83.7271 192.211Z" fill="#F0792D"/>
<path d="M98.0882 186.427V197.326C98.3285 197.271 98.5636 197.21 98.794 197.145V186.427H98.0882Z" fill="white"/>
<path d="M99.1139 187.374V197.049C99.245 197.009 99.3738 196.967 99.5002 196.924C100.283 196.657 100.995 196.335 101.617 195.966C101.65 195.947 101.681 195.928 101.712 195.909V188.515C101.681 188.495 101.649 188.476 101.617 188.457C100.996 188.089 100.283 187.766 99.5002 187.499C99.3738 187.456 99.245 187.414 99.1139 187.374Z" fill="white"/>
<path d="M94.0189 195.983C99.7026 195.983 104.31 193.49 104.31 190.416C104.31 187.341 99.7026 184.849 94.0189 184.849C88.3352 184.849 83.7275 187.341 83.7275 190.416C83.7275 193.49 88.3352 195.983 94.0189 195.983Z" fill="white"/>
<path d="M94.019 195.767C99.7027 195.767 104.31 193.275 104.31 190.2C104.31 187.126 99.7027 184.633 94.019 184.633C88.3353 184.633 83.7277 187.126 83.7277 190.2C83.7277 193.275 88.3353 195.767 94.019 195.767Z" fill="#FFB240"/>
<path d="M85.7377 190.2C85.7377 192.785 89.6114 194.88 94.3903 194.88C99.1687 194.88 103.043 192.785 103.043 190.2C103.043 187.615 99.1692 185.52 94.3903 185.52C89.6118 185.52 85.7377 187.615 85.7377 190.2ZM87.6991 190.208C87.6991 188.209 90.6946 186.589 94.3898 186.589C98.085 186.589 101.08 188.209 101.08 190.208C101.08 192.207 98.085 193.827 94.3898 193.827C90.6946 193.827 87.6991 192.207 87.6991 190.208Z" fill="#FFD979"/>
<path d="M90.535 189.295L90.5991 189.214C90.6108 189.2 90.8763 188.869 91.3582 188.541L90.5616 188.114L91.2262 187.758L92.0131 188.18C92.4013 188.014 92.804 187.92 93.2119 187.903C93.269 187.901 93.3266 187.899 93.3828 187.899C94.2863 187.899 95.0253 188.218 95.2656 188.711C95.4112 189.009 95.3458 189.327 95.0811 189.607C94.7126 189.996 94.5519 190.338 94.6278 190.569C94.6859 190.745 94.8732 190.824 95.0197 190.86C95.2061 190.904 95.3912 190.927 95.5696 190.927C96.7494 190.927 97.3656 189.936 97.3717 189.926L97.3867 189.902L97.3979 189.871L98.2943 190.099L98.2738 190.165C98.2714 190.173 98.2686 190.181 98.2658 190.189C98.2583 190.277 98.2105 190.536 97.9239 190.761C97.7895 190.87 97.6471 190.969 97.4991 191.059L98.2836 191.48L97.611 191.841L96.7924 191.402C96.3348 191.571 95.8383 191.661 95.3541 191.661C94.2722 191.661 93.39 191.217 93.3014 190.628C93.2326 190.168 93.4943 189.823 93.7051 189.546C93.8531 189.351 93.9805 189.183 93.9459 189.039C93.9215 188.94 93.8189 188.844 93.632 188.747C93.4849 188.67 93.3244 188.631 93.1549 188.631C92.3826 188.631 91.6219 189.423 91.5521 189.498L91.5255 189.551L90.623 189.333L90.63 189.318L90.535 189.295Z" fill="#FFD979"/>
<path d="M82.243 189.863C82.243 192.938 86.8505 195.43 92.5352 195.43C93.9791 195.43 95.356 195.268 96.6041 194.978C96.8444 194.921 97.0794 194.861 97.3093 194.796C97.4171 194.765 97.5239 194.734 97.6297 194.701C97.7609 194.661 97.8896 194.619 98.0156 194.576C98.7987 194.309 99.511 193.986 100.133 193.618C100.165 193.598 100.196 193.58 100.228 193.561C101.843 192.577 102.826 191.282 102.826 189.863V189.861H102.827V187.364H101.733C101.328 186.93 100.82 186.527 100.228 186.167C100.196 186.147 100.165 186.128 100.133 186.109C99.5106 185.742 98.7987 185.419 98.0156 185.151C97.8892 185.108 97.7604 185.066 97.6297 185.026C97.5244 184.993 97.4175 184.961 97.3093 184.932C97.0799 184.866 96.8444 184.805 96.6041 184.749C95.356 184.458 93.98 184.297 92.5352 184.297C88.5126 184.297 85.0277 185.546 83.3356 187.365H82.2439V189.796C82.2429 189.817 82.243 189.841 82.243 189.863Z" fill="#F0792D"/>
<path d="M96.6041 184.078V194.977C96.8443 194.921 97.0794 194.86 97.3098 194.795V184.078L96.6041 184.078Z" fill="white"/>
<path d="M97.6298 185.026V194.701C97.7609 194.661 97.8897 194.619 98.0157 194.576C98.7988 194.308 99.5111 193.986 100.133 193.618C100.165 193.598 100.196 193.58 100.228 193.561V186.167C100.196 186.147 100.165 186.128 100.133 186.109C99.5106 185.741 98.7988 185.418 98.0157 185.151C97.8897 185.107 97.7609 185.065 97.6298 185.026Z" fill="white"/>
<path d="M92.5348 193.634C98.2185 193.634 102.826 191.141 102.826 188.067C102.826 184.992 98.2185 182.5 92.5348 182.5C86.851 182.5 82.2434 184.992 82.2434 188.067C82.2434 191.141 86.851 193.634 92.5348 193.634Z" fill="white"/>
<path d="M92.5347 193.418C98.2184 193.418 102.826 190.926 102.826 187.851C102.826 184.777 98.2184 182.284 92.5347 182.284C86.851 182.284 82.2434 184.777 82.2434 187.851C82.2434 190.926 86.851 193.418 92.5347 193.418Z" fill="#FFB240"/>
<path d="M84.2535 187.851C84.2535 190.436 88.1271 192.532 92.9061 192.532C97.6845 192.532 101.559 190.436 101.559 187.851C101.559 185.267 97.685 183.171 92.9061 183.171C88.1271 183.171 84.2535 185.267 84.2535 187.851ZM86.2149 187.859C86.2149 185.86 89.2104 184.24 92.9056 184.24C96.6008 184.24 99.5962 185.86 99.5962 187.859C99.5962 189.858 96.6008 191.479 92.9056 191.479C89.2109 191.479 86.2149 189.858 86.2149 187.859Z" fill="#FFD979"/>
<path d="M89.0503 186.947L89.1144 186.866C89.1261 186.851 89.3917 186.521 89.8736 186.192L89.077 185.765L89.7416 185.409L90.5283 185.831C90.9161 185.665 91.3194 185.571 91.7269 185.554C91.784 185.551 91.8416 185.55 91.8978 185.55C92.8012 185.55 93.5403 185.868 93.7805 186.362C93.9262 186.66 93.8606 186.978 93.596 187.258C93.2274 187.647 93.0667 187.988 93.1426 188.219C93.2007 188.395 93.3881 188.475 93.5347 188.51C93.7211 188.555 93.906 188.578 94.0844 188.578C95.2642 188.578 95.8806 187.587 95.8867 187.577L95.9017 187.552L95.9129 187.522L96.8093 187.75L96.7887 187.816C96.7864 187.824 96.7835 187.831 96.7807 187.839C96.7732 187.927 96.7254 188.186 96.4388 188.412C96.3044 188.52 96.162 188.62 96.014 188.71L96.7985 189.131L96.126 189.491L95.3073 189.052C94.8497 189.222 94.3528 189.311 93.869 189.311C92.7872 189.311 91.9048 188.867 91.8163 188.279C91.747 187.819 92.0093 187.473 92.22 187.196C92.368 187.002 92.4953 186.833 92.4607 186.69C92.4363 186.59 92.3338 186.495 92.1469 186.397C91.9999 186.32 91.8392 186.281 91.6697 186.281C90.8974 186.281 90.1369 187.074 90.0666 187.149L90.0399 187.201L89.1374 186.983L89.1445 186.969L89.0503 186.947Z" fill="#FFD979"/>
<path d="M213.676 165.246L213.684 162.387C214.333 157.288 215.462 146.367 214.269 139.578L213.766 139.956L213.768 139.746L213.768 139.612L213.402 139.729L208.864 141.177L202.867 143.092L203.89 151.782L205.657 162.487V162.49L206.365 166.777L206.568 167.312L207.538 169.881L213.254 184.451C213.254 184.451 215.688 185.528 219.422 183.383L213.676 165.246Z" fill="#0E1B62"/>
<path d="M192.614 189.357C192.936 188.25 198.217 187.853 198.217 187.853L203.199 189.824C203.074 192.347 202.574 192.984 201.38 193.003C193.521 192.337 192.642 190.932 192.642 190.932C192.642 190.932 192.293 190.465 192.614 189.357Z" fill="#172A98"/>
<path d="M201.359 143.576C201.41 143.306 201.437 143.158 201.437 143.158L197.442 142.337C193.261 148.871 196.153 168.036 196.153 168.036L197.396 189.599C197.396 189.599 198.612 190.841 203.376 190.137L204.068 171.538L205.658 162.49V162.489L207.634 151.243L208.863 141.179L209.047 140.134L201.359 143.576Z" fill="#0E1B62"/>
<path d="M189.137 103.034C189.137 103.034 189.586 101.706 188.938 100.972C188.29 100.238 187.665 101.34 187.665 101.34C185.17 99.5712 184.67 100.453 184.67 100.453C183.079 101.65 183.727 102.384 183.727 102.384C184.187 103.449 187.409 105.007 187.409 105.007L189.137 103.034Z" fill="#E2796F"/>
<path d="M215.282 121.323C214.461 122.771 212.867 123.51 208.651 121.472C204.436 119.433 197.639 115.14 197.639 115.14L187.027 105.142L189.368 102.652L201.082 111.436L211.844 116.137C211.845 116.137 216.925 118.426 215.282 121.323Z" fill="#132B95"/>
<path d="M209.994 187.887C209.663 186.782 213.998 183.969 213.998 183.969L219.375 183.336C220.652 185.569 220.571 186.353 219.552 186.928C212.41 190.031 210.883 189.232 210.883 189.232C210.883 189.232 210.325 188.992 209.994 187.887Z" fill="#172A98"/>
<path d="M207.242 153.481L207.538 169.881L206.568 167.312L205.715 162.531L207.242 153.481Z" fill="#050D3F"/>
<path d="M176.56 108.594C176.56 108.594 176.975 107.157 176.248 106.399C175.52 105.641 174.905 106.844 174.905 106.844C172.154 105.058 171.663 106.021 171.663 106.021C170.021 107.365 170.749 108.124 170.749 108.124C171.293 109.243 174.811 110.774 174.811 110.774L176.56 108.594Z" fill="#E2796F"/>
<path d="M196.063 125.255L197.286 130.546C198.467 135.656 197.731 140.986 195.198 145.659C195.198 145.659 209.215 148.243 214.976 141.358L214.746 139.684C213.485 135.909 213.216 131.912 213.959 128.021L215.606 119.406C215.606 119.406 215.447 118.076 214.279 116.923C213.689 116.34 212.922 115.976 212.11 115.848C211.298 115.72 210.44 115.825 209.666 116.18L198.992 121.076C198.292 121.397 197.691 121.851 197.219 122.395C196.524 123.196 196.108 124.194 196.063 125.255Z" fill="#132B95"/>
<path d="M203.29 125.764C202.483 127.345 200.888 128.233 196.618 126.374C192.348 124.516 185.449 120.458 185.449 120.458L174.633 110.654L176.957 107.872L188.865 116.321L199.761 120.537C199.761 120.537 204.905 122.6 203.29 125.764Z" fill="#4150B8"/>
<path d="M198.994 105.447C198.994 105.447 197.271 117.634 202.479 116.709C207.686 115.784 209.305 110.115 209.305 110.115L205.874 105.695L198.994 105.447Z" fill="#E2796F"/>
<path d="M203.887 113.971L203.155 119.036C203.155 119.036 207.064 120.291 208.859 118.605L209.047 114.158L203.887 113.971Z" fill="#F4CAAB"/>
<path d="M201.894 110.165C199.679 109.608 200.62 107.733 200.62 107.733C200.62 107.733 197.743 106.516 197.837 104.292C197.931 102.068 201.398 101.557 201.398 101.557C201.398 101.557 208.127 101.323 210.036 105.051C211.945 108.779 208.917 115.192 208.917 115.192L206 115.087L203.574 111.181L201.894 110.165Z" fill="#010D40"/>
<path d="M200.688 110.863C200.646 111.854 201.483 112.689 202.556 112.728C203.63 112.767 204.534 111.995 204.576 111.003C204.618 110.012 203.782 109.177 202.708 109.138C201.635 109.099 200.731 109.872 200.688 110.863Z" fill="#F4CAAB"/>
<path d="M209.813 105.797L199.382 105.461C202.534 114.416 196.09 117.514 196.09 117.514C196.09 117.514 204.606 122.263 210.207 117.747C215.81 113.231 209.813 105.797 209.813 105.797Z" fill="#010D40"/>
<path d="M241.225 150.427V159.894L258.732 150.561V140.886L241.225 150.427Z" fill="#79B7EB"/>
<path d="M223.943 140.886V150.353L241.225 159.894V150.22L223.943 140.886Z" fill="#A6CBF3"/>
<path d="M223.943 140.886L241.225 131.553L258.732 140.886L241.45 150.427L223.943 140.886Z" fill="#CEE2F5"/>
<path d="M223.943 108.428V140.842L241.225 150.382L258.732 141.049V108.428H223.943Z" fill="url(#paint0_linear_191_1412)"/>
<path d="M267.14 165.179V174.646L284.647 165.312V155.638L267.14 165.179Z" fill="#79B7EB"/>
<path d="M249.857 155.638V165.105L267.139 174.646V164.971L249.857 155.638Z" fill="#A6CBF3"/>
<path d="M249.857 155.638L267.139 146.304L284.646 155.638L267.364 165.179L249.857 155.638Z" fill="#CEE2F5"/>
<path d="M249.857 123.179V155.593L267.139 165.134L284.646 155.8V123.179H249.857Z" fill="url(#paint1_linear_191_1412)"/>
<path opacity="0.22" d="M170.794 282.167L170.695 282.219L169.562 282.822L164.323 285.615L138.639 299.294C136.875 300.235 134.703 300.235 132.938 299.294L107.244 285.595L102.008 282.806L100.776 282.147L132.906 265.078C134.663 264.14 136.829 264.14 138.589 265.074L170.695 282.114L170.794 282.167Z" fill="#364084"/>
<path d="M170.794 242.502L170.695 242.554V249.438L138.639 266.514C136.875 267.455 134.702 267.455 132.938 266.514L100.776 249.366L100.762 249.359V242.489L100.776 242.482L132.906 225.413C134.663 224.476 136.829 224.475 138.589 225.41L170.695 242.449L170.794 242.502Z" fill="#A6CBF3"/>
<path d="M170.794 242.502L170.695 242.554V243.866L165.555 246.603L138.639 260.941C136.875 261.882 134.702 261.882 132.938 260.941L106.012 246.586L100.776 243.793L100.762 243.787V242.489L100.776 242.482L132.906 225.413C134.663 224.476 136.829 224.475 138.589 225.41L170.695 242.449L170.794 242.502Z" fill="white"/>
<path d="M170.794 242.502L170.695 242.554L169.563 243.158L164.323 245.95L138.64 259.63C136.875 260.571 134.703 260.571 132.939 259.63L107.244 245.931L102.008 243.141L100.776 242.482L132.906 225.413C134.663 224.476 136.829 224.476 138.59 225.41L170.695 242.45L170.794 242.502Z" fill="#F3F5F9"/>
<path opacity="0.46" d="M132.421 234.764C124.657 234.764 118.363 238.149 118.363 242.324C118.363 246.499 124.657 249.884 132.421 249.884C140.185 249.884 146.479 246.499 146.479 242.324C146.479 238.149 140.185 234.764 132.421 234.764Z" fill="#354594"/>
<path d="M137.514 238.915V250.589L147.129 245.466C147.906 245.052 148.548 244.48 149.019 243.808C149.591 242.99 149.91 242.025 149.91 241.019V232.164L137.514 238.915Z" fill="#79B7EB"/>
<path d="M125.276 232.164V238.983C125.276 241.994 126.99 244.783 129.789 246.327L137.514 250.589V238.768L125.276 232.164Z" fill="#4390CD"/>
<path d="M125.276 232.164L137.514 225.56L149.91 232.164L137.673 238.915L125.276 232.164Z" fill="#CEE2F5"/>
<path d="M128.883 232.186L137.537 227.516L146.303 232.186L137.649 236.96L128.883 232.186Z" fill="#0E1B62"/>
<path d="M137.414 233.862C141.315 226.743 132.291 211.76 132.291 211.76C132.291 211.76 128.76 228.751 137.414 233.862Z" fill="#1D794A"/>
<path d="M137.678 233.862C133.777 226.743 142.801 211.76 142.801 211.76C142.801 211.76 146.332 228.751 137.678 233.862Z" fill="#1D794A"/>
<path d="M137.826 233.747C137.727 227.523 151.092 220.49 151.092 220.49C151.092 220.49 146.777 233.313 137.826 233.747Z" fill="#469D50"/>
<path d="M140.384 225.042C140.384 232.417 137.27 234.286 137.27 234.286C137.27 234.286 134.155 232.417 134.155 225.042C134.155 217.667 137.27 211.688 137.27 211.688C137.27 211.688 140.384 217.667 140.384 225.042Z" fill="#469D50"/>
<path d="M137.27 234.286C135.49 226.479 148.393 214.153 148.393 214.153C148.393 214.153 147.059 231.41 137.27 234.286Z" fill="#1D794A"/>
<path d="M137.445 234.212C139.088 228.174 153.966 224.563 153.966 224.563C153.966 224.563 146.215 235.923 137.445 234.212Z" fill="#469D50"/>
<path d="M137.266 233.747C137.365 227.523 123.999 220.49 123.999 220.49C123.999 220.49 128.315 233.313 137.266 233.747Z" fill="#469D50"/>
<path d="M137.822 234.286C139.602 226.479 126.698 214.153 126.698 214.153C126.698 214.153 128.033 231.41 137.822 234.286Z" fill="#1D794A"/>
<path d="M137.647 234.212C136.004 228.174 121.126 224.563 121.126 224.563C121.126 224.563 128.877 235.923 137.647 234.212Z" fill="#469D50"/>
<defs>
<linearGradient id="paint0_linear_191_1412" x1="241.338" y1="108.428" x2="241.338" y2="150.383" gradientUnits="userSpaceOnUse">
<stop stop-color="#F2F2F2"/>
<stop offset="1" stop-color="#CEE2F5"/>
</linearGradient>
<linearGradient id="paint1_linear_191_1412" x1="267.252" y1="123.18" x2="267.252" y2="165.134" gradientUnits="userSpaceOnUse">
<stop stop-color="#F2F2F2"/>
<stop offset="1" stop-color="#CEE2F5"/>
</linearGradient>
</defs>
</svg>
