<svg width="25" height="25" viewBox="0 0 25 25" fill="none" xmlns="http://www.w3.org/2000/svg">
<g clip-path="url(#clip0_127_41)">
<path d="M12.4998 10.2272V15.0682H19.2271C18.9317 16.625 18.0452 17.9432 16.7157 18.8295L20.7725 21.9773C23.1361 19.7956 24.4997 16.591 24.4997 12.7842C24.4997 11.8978 24.4202 11.0455 24.2724 10.2274L12.4998 10.2272Z" fill="#4285F4"/>
<path d="M5.49445 14.8792L4.57949 15.5796L1.3408 18.1023C3.39761 22.1818 7.61321 25 12.4995 25C15.8745 25 18.704 23.8864 20.7722 21.9773L16.7154 18.8296C15.6017 19.5795 14.1813 20.0341 12.4995 20.0341C9.24955 20.0341 6.48827 17.841 5.49956 14.8864L5.49445 14.8792Z" fill="#34A853"/>
<path d="M1.34081 6.89774C0.488585 8.57948 0 10.4772 0 12.4999C0 14.5226 0.488585 16.4204 1.34081 18.1021C1.34081 18.1134 5.49997 14.8749 5.49997 14.8749C5.24997 14.1249 5.10221 13.3295 5.10221 12.4998C5.10221 11.6701 5.24997 10.8747 5.49997 10.1247L1.34081 6.89774Z" fill="#FBBC05"/>
<path d="M12.4998 4.97727C14.3407 4.97727 15.9771 5.61362 17.2839 6.84091L20.8634 3.26141C18.6929 1.23871 15.8748 0 12.4998 0C7.61347 0 3.39761 2.80681 1.3408 6.89774L5.49984 10.125C6.48841 7.17043 9.24981 4.97727 12.4998 4.97727Z" fill="#EA4335"/>
</g>
<defs>
<clipPath id="clip0_127_41">
<rect width="25" height="25" fill="white"/>
</clipPath>
</defs>
</svg>
