<svg width="68" height="68" viewBox="0 0 68 68" fill="none" xmlns="http://www.w3.org/2000/svg">
<path d="M27.3005 67.3334C21.9982 66.2677 17.0266 63.9525 12.7986 60.5801C8.57052 57.2076 5.208 52.8751 2.99019 47.9424C0.772387 43.0098 -0.2367 37.6192 0.0467168 32.2183C0.330134 26.8174 1.89788 21.562 4.61977 16.8885C7.34167 12.2151 11.1392 8.25834 15.697 5.34691C20.2548 2.43547 25.4414 0.653334 30.8261 0.148466C36.2108 -0.356402 41.6383 0.430569 46.6578 2.44403C51.6774 4.4575 56.1442 7.63936 59.6874 11.7254L52.8216 17.679C50.2255 14.6851 46.9526 12.3537 43.2746 10.8784C39.5967 9.40307 35.6199 8.82645 31.6744 9.19637C27.7289 9.5663 23.9286 10.8721 20.5891 13.0054C17.2495 15.1386 14.467 18.0378 12.4726 21.4621C10.4782 24.8865 9.32948 28.7372 9.12182 32.6945C8.91415 36.6518 9.65353 40.6016 11.2786 44.2159C12.9036 47.8301 15.3674 51.0046 18.4653 53.4757C21.5633 55.9468 25.2061 57.6432 29.0912 58.424L27.3005 67.3334Z" fill="#FF9029"/>
<path d="M59.3975 56.6045C55.7631 60.6881 51.1976 63.835 46.0881 65.7786C40.9786 67.7222 35.4757 68.405 30.0462 67.7693L31.103 58.7434C35.0813 59.2092 39.1133 58.7088 42.8571 57.2847C46.601 55.8607 49.9462 53.5548 52.6092 50.5628L59.3975 56.6045Z" fill="#FF9029"/>
<path d="M61.7269 14.3221C65.8915 20.1901 68.087 27.2282 67.9974 34.4234C67.9078 41.6185 65.5377 48.5997 61.2282 54.3623L53.9506 48.9198C57.1082 44.6975 58.8448 39.5822 58.9105 34.3102C58.9761 29.0382 57.3675 23.8813 54.316 19.5816L61.7269 14.3221Z" fill="#FF9029"/>
<path fill-rule="evenodd" clip-rule="evenodd" d="M40.2597 16.7967C42.7326 16.2894 44.9048 16.2949 45.936 16.338C46.8503 16.3761 47.5763 17.1022 47.6144 18.0163C47.6574 19.0475 47.663 21.2198 47.1557 23.6927C46.8564 25.1514 45.1029 25.5468 44.1354 24.5793L42.74 23.1838C42.3264 23.5576 41.7676 24.071 41.128 24.6804C39.7513 25.9919 38.0239 27.7256 36.5671 29.4563C35.3278 30.9286 32.9501 30.9184 31.7862 29.2895C31.1606 28.414 30.3478 27.3127 29.4944 26.2524C27.8677 27.3657 24.4901 29.9282 20.6932 34.2703C20.4578 34.5395 20.2208 34.8154 19.9826 35.0983C19.4645 35.7135 18.5457 35.7922 17.9305 35.2741C17.3153 34.7559 17.2366 33.8372 17.7547 33.222C18.0047 32.9252 18.2534 32.6356 18.5005 32.353C22.5705 27.6984 26.2091 24.9603 27.9615 23.7723C29.1871 22.9413 30.7949 23.2277 31.6938 24.3397C32.6203 25.4857 33.4952 26.6713 34.1561 27.5961C34.1623 27.6048 34.1673 27.6087 34.1746 27.6124C34.1845 27.6174 34.2027 27.6235 34.2282 27.6242C34.2831 27.6258 34.319 27.6039 34.3388 27.5806C35.8939 25.7331 37.7075 23.9161 39.1189 22.5715C39.7254 21.9937 40.2619 21.499 40.6778 21.1217L39.3731 19.817C38.4056 18.8495 38.801 17.0959 40.2597 16.7967ZM39.8136 46.3397C39.7177 45.0206 39.6217 42.67 39.6217 38.5294C39.6217 34.3889 39.7177 32.0383 39.8136 30.7191C39.9202 29.2557 40.9894 28.1137 42.5094 28.0207C42.9931 27.9911 43.5997 27.9709 44.3549 27.9709C45.11 27.9709 45.7166 27.9911 46.2004 28.0207C47.7204 28.1137 48.7895 29.2557 48.8961 30.7191C48.992 32.0383 49.088 34.3889 49.088 38.5294C49.088 42.67 48.992 45.0206 48.8961 46.3397C48.7895 47.8032 47.7204 48.9451 46.2004 49.0382C45.7166 49.0678 45.11 49.088 44.3549 49.088C43.5997 49.088 42.9931 49.0678 42.5094 49.0381C40.9894 48.9452 39.9202 47.8032 39.8136 46.3397ZM16.4427 46.736C16.3731 46.0489 16.32 45.0581 16.32 43.6267C16.32 42.1952 16.3731 41.2045 16.4427 40.5174C16.5897 39.0676 17.7526 38.2373 19.0261 38.1945C19.5265 38.1778 20.1886 38.1654 21.0532 38.1654C21.9177 38.1654 22.5799 38.1778 23.0802 38.1945C24.3538 38.2373 25.5166 39.0676 25.6636 40.5174C25.7332 41.2045 25.7863 42.1952 25.7863 43.6267C25.7863 45.0581 25.7332 46.0489 25.6636 46.736C25.5166 48.1857 24.3538 49.0161 23.0802 49.0588C22.5799 49.0756 21.9177 49.088 21.0532 49.088C20.1886 49.088 19.5265 49.0756 19.0261 49.0588C17.7526 49.0161 16.5897 48.1857 16.4427 46.736ZM27.9708 41.4421C27.9708 43.9263 28.0426 45.4937 28.1256 46.4792C28.2511 47.9705 29.3928 48.9888 30.8351 49.052C31.3181 49.0732 31.9316 49.088 32.704 49.088C33.4765 49.088 34.0899 49.0732 34.5729 49.052C36.0152 48.9888 37.157 47.9705 37.2824 46.4792C37.3654 45.4937 37.4372 43.9263 37.4372 41.4421C37.4372 38.958 37.3654 37.3906 37.2824 36.4051C37.157 34.9138 36.0152 33.8955 34.5729 33.8323C34.0899 33.8111 33.4765 33.7963 32.704 33.7963C31.9316 33.7963 31.3181 33.8111 30.8351 33.8323C29.3928 33.8955 28.2511 34.9138 28.1256 36.4051C28.0426 37.3906 27.9708 38.958 27.9708 41.4421Z" fill="#03AE29"/>
</svg>
